<svg width="243" height="58" viewBox="0 0 243 58" fill="none" xmlns="http://www.w3.org/2000/svg">
<path d="M90.3051 47H85.7951L83.4301 37.32L84.0901 37.87H68.6351L69.3501 37.32L66.7651 47H62.5301L70.8901 17.19C71.2568 15.76 71.6418 14.6783 72.0451 13.945C72.4851 13.2117 73.0718 12.6983 73.8051 12.405C74.5385 12.1117 75.6018 11.965 76.9951 11.965L81.7251 12.075L90.3051 47ZM74.9601 16.475L70.0651 34.515L69.6251 33.965H83.2651L82.8251 34.515L78.3701 15.925H75.5651C75.3818 15.925 75.2535 15.98 75.1801 16.09C75.1068 16.1633 75.0335 16.2917 74.9601 16.475ZM98.4077 57.45H94.0627V20.05H97.8577L98.4077 23.24L98.0777 24.725C98.0777 23.0017 98.4444 21.7367 99.1777 20.93C99.9111 20.0867 101.139 19.665 102.863 19.665H106.658C108.784 19.665 110.324 20.0683 111.278 20.875C112.231 21.6817 112.708 23.1483 112.708 25.275V41.335C112.708 43.535 112.213 45.0567 111.223 45.9C110.233 46.7433 108.583 47.165 106.273 47.165L98.4077 47.055V57.45ZM98.4077 23.735V44.085L97.8577 43.48L107.868 43.59C108.198 43.59 108.363 43.425 108.363 43.095V23.735C108.363 23.405 108.198 23.24 107.868 23.24H98.9027C98.5727 23.24 98.4077 23.405 98.4077 23.735ZM122.793 57.45H118.448V20.05H122.243L122.793 23.24L122.463 24.725C122.463 23.0017 122.829 21.7367 123.563 20.93C124.296 20.0867 125.524 19.665 127.248 19.665H131.043C133.169 19.665 134.709 20.0683 135.663 20.875C136.616 21.6817 137.093 23.1483 137.093 25.275V41.335C137.093 43.535 136.598 45.0567 135.608 45.9C134.618 46.7433 132.968 47.165 130.658 47.165L122.793 47.055V57.45ZM122.793 23.735V44.085L122.243 43.48L132.253 43.59C132.583 43.59 132.748 43.425 132.748 43.095V23.735C132.748 23.405 132.583 23.24 132.253 23.24H123.288C122.958 23.24 122.793 23.405 122.793 23.735ZM147.617 47H143.272V9.875H147.617V47ZM159.058 47H154.713V20.05H159.058V47ZM159.058 14.66H154.713V10.425H159.058V14.66ZM179.462 13.175L172.092 13.12C171.725 13.12 171.542 13.3033 171.542 13.67V20.765L170.827 20.05H178.527V23.46H170.827L171.542 22.69V47H167.197V22.69L167.967 23.46H163.952V20.05H167.967L167.197 20.765V15.485C167.197 13.2117 167.71 11.6533 168.737 10.81C169.8 9.93 171.487 9.49 173.797 9.49L179.462 9.545V13.175ZM195.191 54.205C195.521 54.205 195.686 54.04 195.686 53.71V43.81L196.071 42.325C196.071 44.0483 195.705 45.3317 194.971 46.175C194.238 46.9817 192.991 47.385 191.231 47.385H187.436C185.346 47.385 183.806 46.9817 182.816 46.175C181.826 45.3317 181.331 43.865 181.331 41.775V20.05H185.676V43.315C185.676 43.645 185.86 43.81 186.226 43.81H195.686V20.05H199.976L200.031 51.73C200.031 53.9667 199.5 55.5433 198.436 56.46C197.373 57.3767 195.631 57.835 193.211 57.835H182.266V54.205H195.191Z" fill="#2CB1BC"/>
<g clip-path="url(#clip0_4_6)">
<path d="M22.7539 1.15625C22.6172 1.17578 22.1191 1.24414 21.6309 1.30273C20.4883 1.43945 18.75 1.82031 17.5781 2.19141C10.9766 4.29102 5.66406 8.85156 2.63672 15.0137C1.47461 17.3867 0.742188 19.6816 0.322266 22.3086C0.078125 23.8809 0.078125 28.1191 0.322266 29.6914C1.18164 35.0625 3.62305 39.877 7.40234 43.6465C11.1523 47.377 15.6738 49.6914 21.0547 50.6289C22.1582 50.8242 22.6562 50.8438 25 50.8438C27.3438 50.8438 27.8418 50.8242 28.9453 50.6289C31.6113 50.1699 33.6621 49.5059 35.9863 48.373C43.1641 44.8574 48.1348 38.2168 49.5801 30.1992C49.8242 28.9004 49.8438 28.5684 49.8438 26.0488C49.8535 23.6367 49.8242 23.168 49.6289 22.0547C49.1309 19.1934 48.3691 16.9082 47.1191 14.5059C43.457 7.45508 36.709 2.62109 28.7598 1.33203C27.832 1.18555 23.3691 1.04883 22.7539 1.15625ZM34.0234 26.5176C36.9141 34.5254 39.3066 41.1465 39.3262 41.2051C39.3652 41.3027 38.7207 41.332 36.2988 41.332H33.2227L32.8418 40.2383C32.627 39.6328 32.041 37.9336 31.5332 36.4688L30.6152 33.8125L25.0586 33.832L19.5117 33.8613L18.2227 37.5723L16.9336 41.2832L13.8281 41.3125C11.3574 41.332 10.7324 41.3125 10.7715 41.2148C10.791 41.1465 13.2031 34.5254 16.1133 26.5078L21.416 11.9375H25.0879H28.7598L34.0234 26.5176Z" fill="#2CB1BC"/>
<path d="M24.7363 17.7383C24.5605 18.3535 23.6328 21.166 22.6562 24.0078C21.6895 26.8398 20.8984 29.1836 20.8984 29.1934C20.8984 29.2129 22.7637 29.2227 25.0488 29.2227C27.334 29.2227 29.1992 29.1836 29.1992 29.1445C29.1992 29.0957 28.4961 26.9766 27.627 24.4277C26.7676 21.8789 25.8496 19.0957 25.5762 18.2461C25.3125 17.3867 25.0879 16.6836 25.0684 16.6641C25.0586 16.6543 24.9023 17.1328 24.7363 17.7383Z" fill="#2CB1BC"/>
</g>
<defs>
<clipPath id="clip0_4_6">
<rect width="50" height="50" fill="white" transform="translate(0 1)"/>
</clipPath>
</defs>
</svg>
